<?xml version="1.0" encoding="UTF-8" standalone="no"?>
<!-- Uploaded to: SVG Repo, www.svgrepo.com, Generator: SVG Repo Mixer Tools -->

<svg
   fill="#000000"
   version="1.1"
   id="Capa_1"
   width="800"
   height="800"
   viewBox="0 0 417.031 417.031"
   xml:space="preserve"
   xmlns="http://www.w3.org/2000/svg"
   xmlns:svg="http://www.w3.org/2000/svg"><defs
   id="defs1" />
<g
   id="g1"
   transform="matrix(-1,0,0,1,417.034,0)">
	<path
   d="m 219.683,92.146 c -0.279,-0.315 -0.52,-0.627 -0.849,-0.925 -3.644,-3.272 -3.742,-2.306 0.247,-5.983 2.955,-2.712 6.541,-4.834 9.79,-7.18 8.596,-6.213 14.254,-14.534 18.079,-24.399 8.582,-22.15 -16.706,-37.453 -29.396,-50.562 -9.168,-9.485 -23.603,4.982 -14.444,14.447 7.076,7.325 16.19,13.264 22.349,21.407 6.897,9.116 -3.613,19.174 -10.814,24.249 -11.133,7.844 -20.757,18.262 -18.533,29.434 -49.964,4.668 -96.16,32.052 -96.16,80.327 v 135.51 c 0,59.862 48.698,108.562 108.564,108.562 59.863,0 108.566,-48.7 108.566,-108.562 V 172.95 C 317.085,120.247 268.05,94.723 219.683,92.146 Z m -99.292,80.804 c 0,-35.833 38.898,-56.581 79.186,-60.027 v 124.982 c -36.751,-1.85 -66.589,-10.222 -79.186,-14.309 z m 176.257,135.511 c 0,48.604 -39.537,88.133 -88.129,88.133 -48.59,0 -88.128,-39.529 -88.128,-88.133 V 245.08 c 18.249,5.516 52.6,13.882 93.202,13.882 26.003,0 54.556,-3.479 83.056,-13.286 v 62.785 z m 0,-84.521 c -25.844,9.883 -52.237,13.746 -76.635,14.271 v -125.59 c 39.407,2.363 76.635,21.264 76.635,60.337 z m -6.913,-7.737 c 0,0 -46.688,13.073 -62.567,10.271 V 122.813 c 42.261,7.94 69.457,20.72 62.567,93.39 z"
   id="path1" />
</g>
</svg>
